<?xml version="1.0" encoding="UTF-8" standalone="no"?>
<svg width="537px" height="220px" viewBox="0 0 537 220" version="1.1" xmlns="http://www.w3.org/2000/svg" xmlns:xlink="http://www.w3.org/1999/xlink">
    <!-- Generator: Sketch 3.8.3 (29802) - http://www.bohemiancoding.com/sketch -->
    <title>welcome page</title>
    <desc>Created with Sketch.</desc>
    <defs></defs>
    <g id="Welcome" stroke="none" stroke-width="1" fill="none" fill-rule="evenodd">
        <g id="welcome-page" transform="translate(-379.000000, -181.000000)" fill="#000000">
            <g id="Group" transform="translate(407.000000, 209.000000)">
                <g id="Group-9" transform="translate(7.000000, 0.585789)">
                    <path d="M63.0177927,158.93803 C53.6831948,158.93803 45.1266085,157.604007 37.347777,154.935919 C29.5689455,152.267831 22.9292568,148.349136 17.4285116,143.179716 C11.9277665,138.010295 7.6494733,131.673682 4.59350377,124.169685 C1.53753425,116.665688 0.00957240686,108.077909 0.00957240686,98.4060907 C0.00957240686,89.4012944 1.62087762,81.1748136 4.84353639,73.7264018 C8.06619517,66.27799 12.5389562,59.8857921 18.2619537,54.5496165 C23.9849511,49.2134409 30.7635455,45.0724083 38.5979401,42.1263947 C46.4323347,39.1803811 54.9055777,37.7073963 64.0179231,37.7073963 C73.1302686,37.7073963 81.5757305,39.1803811 89.354562,42.1263947 C97.1333935,45.0724083 103.856426,49.1856487 109.52386,54.4662392 C115.191294,59.7468296 119.608493,66.0834432 122.775589,73.4762698 C125.942685,80.8690965 127.526209,89.0122007 127.526209,97.9058268 C127.526209,102.46381 127.026148,106.716011 126.026013,110.662558 C125.025877,114.609104 123.692383,118.194294 122.025491,121.418233 C120.358599,124.642173 118.469482,127.504766 116.358085,130.006098 C114.246688,132.50743 112.135322,134.591843 110.023925,136.259397 L110.023925,136.759661 L134.860499,136.259397 L134.860499,158.93803 L63.0177927,158.93803 Z M97.3556058,98.7396001 C97.3556058,93.6257651 96.5499532,88.9010971 94.9386238,84.5654544 C93.3272944,80.2298117 91.0492422,76.5056616 88.1043989,73.3928925 C85.1595555,70.2801234 81.6313527,67.8622051 77.5196846,66.139065 C73.4080165,64.415925 68.9074744,63.5543679 64.0179231,63.5543679 C59.2394981,63.5543679 54.8222993,64.415925 50.7661943,66.139065 C46.7100893,67.8622051 43.1818865,70.2801234 40.18148,73.3928925 C37.1810736,76.5056616 34.8474591,80.2298117 33.1805667,84.5654544 C31.5136742,88.9010971 30.6802405,93.6257651 30.6802405,98.7396001 C30.6802405,104.075776 31.4858931,108.939404 33.0972225,113.330632 C34.7085518,117.72186 36.9866041,121.501595 39.9314474,124.669949 C42.8762908,127.838303 46.3767124,130.284014 50.4328175,132.007154 C54.4889225,133.730294 58.9616835,134.591851 63.8512347,134.591851 C68.6296598,134.591851 73.0746397,133.730294 77.1863078,132.007154 C81.2979759,130.284014 84.8539598,127.838303 87.8543663,124.669949 C90.8547727,121.501595 93.1883872,117.72186 94.8552796,113.330632 C96.5221721,108.939404 97.3556058,104.075776 97.3556058,98.7396001 L97.3556058,98.7396001 Z M249.042062,114.414538 C249.042062,121.529438 247.847474,128.005013 245.458261,133.841455 C243.069049,139.677897 239.65197,144.680487 235.206924,148.849374 C230.761877,153.018261 225.40012,156.269944 219.121492,158.604521 C212.842864,160.939098 205.869801,162.106369 198.202096,162.106369 C190.423264,162.106369 183.422421,160.939098 177.199356,158.604521 C170.976291,156.269944 165.697877,153.018261 161.363957,148.849374 C157.030036,144.680487 153.696301,139.677897 151.362652,133.841455 C149.029002,128.005013 147.862195,121.529438 147.862195,114.414538 L147.862195,40.8757348 L176.199225,40.8757348 L176.199225,112.079972 C176.199225,115.303912 176.615942,118.36105 177.449388,121.251478 C178.282835,124.141907 179.560766,126.726578 181.283222,129.00557 C183.005678,131.284562 185.28373,133.091052 188.117447,134.425096 C190.951164,135.75914 194.368242,136.426152 198.368784,136.426152 C202.369326,136.426152 205.786405,135.75914 208.620122,134.425096 C211.453839,133.091052 213.759672,131.284562 215.537691,129.00557 C217.31571,126.726578 218.593641,124.141907 219.371524,121.251478 C220.149408,118.36105 220.538343,115.303912 220.538343,112.079972 L220.538343,40.8757348 L249.042062,40.8757348 L249.042062,114.414538 Z M395.061112,99.4066187 C395.061112,108.744926 393.449807,117.277121 390.227148,125.003458 C387.004489,132.729796 382.531728,139.344331 376.808731,144.847262 C371.085733,150.350193 364.279358,154.602394 356.3894,157.603993 C348.499443,160.605592 339.942856,162.106369 330.719385,162.106369 C321.495913,162.106369 312.967108,160.605592 305.132713,157.603993 C297.298319,154.602394 290.519724,150.350193 284.796727,144.847262 C279.073729,139.344331 274.600968,132.729796 271.378309,125.003458 C268.155651,117.277121 266.544345,108.744926 266.544345,99.4066187 C266.544345,89.957141 268.155651,81.4249465 271.378309,73.8097791 C274.600968,66.1946118 279.073729,59.7190375 284.796727,54.3828618 C290.519724,49.0466862 297.298319,44.9334458 305.132713,42.0430174 C312.967108,39.1525889 321.495913,37.7073963 330.719385,37.7073963 C339.942856,37.7073963 348.499443,39.1525889 356.3894,42.0430174 C364.279358,44.9334458 371.085733,49.0466862 376.808731,54.3828618 C382.531728,59.7190375 387.004489,66.1946118 390.227148,73.8097791 C393.449807,81.4249465 395.061112,89.957141 395.061112,99.4066187 L395.061112,99.4066187 Z M364.557132,99.4066187 C364.557132,94.2927837 363.723699,89.5125314 362.056806,85.0657183 C360.389914,80.6189053 358.08408,76.8113788 355.139237,73.6430245 C352.194394,70.4746702 348.63841,67.9733754 344.471179,66.139065 C340.303947,64.3047546 335.720062,63.3876132 330.719385,63.3876132 C325.718707,63.3876132 321.162603,64.3047546 317.050935,66.139065 C312.939267,67.9733754 309.383283,70.4746702 306.382876,73.6430245 C303.38247,76.8113788 301.076636,80.6189053 299.465307,85.0657183 C297.853978,89.5125314 297.048325,94.2927837 297.048325,99.4066187 C297.048325,104.742794 297.881759,109.662007 299.548651,114.164406 C301.215544,118.666804 303.521377,122.529915 306.46622,125.753854 C309.411064,128.977794 312.939267,131.506881 317.050935,133.341191 C321.162603,135.175501 325.718707,136.092643 330.719385,136.092643 C335.720062,136.092643 340.276166,135.175501 344.387834,133.341191 C348.499503,131.506881 352.055486,128.977794 355.055893,125.753854 C358.056299,122.529915 360.389914,118.666804 362.056806,114.164406 C363.723699,109.662007 364.557132,104.742794 364.557132,99.4066187 L364.557132,99.4066187 Z" id="QUO"></path>
                    <polygon id="Path-6" points="400.298839 93.8976046 397.707291 126.441717 479.634646 59.3158463 479.634646 36.4775808"></polygon>
                    <polygon id="Path-6" points="25.2499092 57.4200238 22.6583606 89.9641363 104.585716 22.8382655 104.585716 0"></polygon>
                </g>
            </g>
        </g>
    </g>
</svg>